<svg width="81" height="17" viewBox="0 0 81 17" fill="none" xmlns="http://www.w3.org/2000/svg">
<path d="M3.25781 0V12.7734H11.1094V15.7031H0V0H3.25781ZM19.5938 3.5625C20.75 3.5625 21.7422 3.8125 22.5703 4.3125C23.4141 4.8125 24.0547 5.50781 24.4922 6.39844C24.9453 7.27344 25.1719 8.28906 25.1719 9.44531V10.7109H16.5938C16.75 11.5078 17.1406 12.1484 17.7656 12.6328C18.3906 13.1172 19.1562 13.3594 20.0625 13.3594C20.9219 13.3594 21.7031 13.1875 22.4062 12.8438C23.1094 12.5 23.6719 12.1484 24.0938 11.7891L24.0703 14.5547C23.6953 14.8828 23.1328 15.2188 22.3828 15.5625C21.6484 15.8906 20.8359 16.0547 19.9453 16.0547C18.7734 16.0547 17.7031 15.7891 16.7344 15.2578C15.7812 14.7266 15.0156 14 14.4375 13.0781C13.875 12.1562 13.5938 11.1016 13.5938 9.91406C13.5938 8.75781 13.8516 7.70312 14.3672 6.75C14.8828 5.79688 15.5938 5.03125 16.5 4.45312C17.4062 3.85938 18.4375 3.5625 19.5938 3.5625ZM19.5234 6.16406C18.7891 6.16406 18.1719 6.39062 17.6719 6.84375C17.1719 7.29688 16.8281 7.90625 16.6406 8.67188H22.3125C22.25 7.82812 21.9375 7.20312 21.375 6.79688C20.8125 6.375 20.1953 6.16406 19.5234 6.16406ZM31.7109 3.5625C32.4453 3.5625 33.125 3.67188 33.75 3.89062C34.375 4.10938 34.8594 4.35938 35.2031 4.64062V7.26562C34.8281 7.01562 34.3672 6.77344 33.8203 6.53906C33.2891 6.30469 32.7344 6.1875 32.1562 6.1875C31.5938 6.1875 31.1484 6.3125 30.8203 6.5625C30.4922 6.8125 30.3281 7.10938 30.3281 7.45312C30.3281 7.70312 30.4219 7.9375 30.6094 8.15625C30.7969 8.35938 31.1562 8.53906 31.6875 8.69531L33.0234 9.14062C34.8203 9.67188 35.7188 10.7109 35.7188 12.2578C35.7188 12.9922 35.5078 13.6484 35.0859 14.2266C34.6797 14.7891 34.125 15.2344 33.4219 15.5625C32.7344 15.8906 31.9688 16.0547 31.125 16.0547C30.3281 16.0547 29.5547 15.9297 28.8047 15.6797C28.0547 15.4297 27.4844 15.1562 27.0938 14.8594V12.2578C27.3906 12.4609 27.75 12.6562 28.1719 12.8438C28.5938 13.0312 29.0312 13.1875 29.4844 13.3125C29.9375 13.4219 30.3516 13.4766 30.7266 13.4766C31.3203 13.4766 31.7734 13.375 32.0859 13.1719C32.4141 12.9531 32.5781 12.6484 32.5781 12.2578C32.5781 11.9609 32.4453 11.7266 32.1797 11.5547C31.9141 11.3828 31.5234 11.2109 31.0078 11.0391L29.5547 10.5234C28.6484 10.2266 28.0234 9.80469 27.6797 9.25781C27.3359 8.71094 27.1641 8.0625 27.1641 7.3125C27.1641 6.5625 27.3516 5.91406 27.7266 5.36719C28.1172 4.80469 28.6562 4.36719 29.3438 4.05469C30.0312 3.72656 30.8203 3.5625 31.7109 3.5625ZM42.0703 3.5625C42.8047 3.5625 43.4844 3.67188 44.1094 3.89062C44.7344 4.10938 45.2188 4.35938 45.5625 4.64062V7.26562C45.1875 7.01562 44.7266 6.77344 44.1797 6.53906C43.6484 6.30469 43.0938 6.1875 42.5156 6.1875C41.9531 6.1875 41.5078 6.3125 41.1797 6.5625C40.8516 6.8125 40.6875 7.10938 40.6875 7.45312C40.6875 7.70312 40.7812 7.9375 40.9688 8.15625C41.1562 8.35938 41.5156 8.53906 42.0469 8.69531L43.3828 9.14062C45.1797 9.67188 46.0781 10.7109 46.0781 12.2578C46.0781 12.9922 45.8672 13.6484 45.4453 14.2266C45.0391 14.7891 44.4844 15.2344 43.7812 15.5625C43.0938 15.8906 42.3281 16.0547 41.4844 16.0547C40.6875 16.0547 39.9141 15.9297 39.1641 15.6797C38.4141 15.4297 37.8438 15.1562 37.4531 14.8594V12.2578C37.75 12.4609 38.1094 12.6562 38.5312 12.8438C38.9531 13.0312 39.3906 13.1875 39.8438 13.3125C40.2969 13.4219 40.7109 13.4766 41.0859 13.4766C41.6797 13.4766 42.1328 13.375 42.4453 13.1719C42.7734 12.9531 42.9375 12.6484 42.9375 12.2578C42.9375 11.9609 42.8047 11.7266 42.5391 11.5547C42.2734 11.3828 41.8828 11.2109 41.3672 11.0391L39.9141 10.5234C39.0078 10.2266 38.3828 9.80469 38.0391 9.25781C37.6953 8.71094 37.5234 8.0625 37.5234 7.3125C37.5234 6.5625 37.7109 5.91406 38.0859 5.36719C38.4766 4.80469 39.0156 4.36719 39.7031 4.05469C40.3906 3.72656 41.1797 3.5625 42.0703 3.5625ZM54.1172 3.5625C55.2734 3.5625 56.3281 3.84375 57.2812 4.40625C58.2344 4.95312 59 5.70312 59.5781 6.65625C60.1719 7.59375 60.4688 8.64844 60.4688 9.82031C60.4688 10.9922 60.1719 12.0469 59.5781 12.9844C59 13.9219 58.2344 14.6719 57.2812 15.2344C56.3281 15.7812 55.2734 16.0547 54.1172 16.0547C52.9766 16.0547 51.9219 15.7812 50.9531 15.2344C50 14.6719 49.2344 13.9219 48.6562 12.9844C48.0781 12.0469 47.7891 10.9922 47.7891 9.82031C47.7891 8.64844 48.0781 7.59375 48.6562 6.65625C49.2344 5.70312 50 4.95312 50.9531 4.40625C51.9219 3.84375 52.9766 3.5625 54.1172 3.5625ZM54.1172 6.44531C53.5547 6.44531 53.0312 6.57812 52.5469 6.84375C52.0625 7.10938 51.6719 7.49219 51.375 7.99219C51.0938 8.49219 50.9531 9.10156 50.9531 9.82031C50.9531 10.5391 51.0938 11.1484 51.375 11.6484C51.6719 12.1484 52.0625 12.5312 52.5469 12.7969C53.0312 13.0469 53.5547 13.1719 54.1172 13.1719C54.6797 13.1719 55.2031 13.0469 55.6875 12.7969C56.1719 12.5312 56.5625 12.1484 56.8594 11.6484C57.1562 11.1484 57.3047 10.5391 57.3047 9.82031C57.3047 9.10156 57.1562 8.49219 56.8594 7.99219C56.5625 7.49219 56.1719 7.10938 55.6875 6.84375C55.2031 6.57812 54.6797 6.44531 54.1172 6.44531ZM66.2578 3.86719V5.55469C66.6172 5.07031 67.1016 4.61719 67.7109 4.19531C68.3359 3.77344 69.0469 3.5625 69.8438 3.5625C71.0469 3.5625 72.0547 3.96875 72.8672 4.78125C73.6797 5.59375 74.0859 6.8125 74.0859 8.4375V15.7031H71.1094L71.0859 8.83594C71.0859 8.03906 70.8906 7.44531 70.5 7.05469C70.125 6.66406 69.6016 6.46875 68.9297 6.46875C68.3984 6.46875 67.8984 6.64062 67.4297 6.98438C66.9766 7.32812 66.5859 7.73438 66.2578 8.20312V15.7031H63.2812V3.86719H66.2578Z" fill="white"/>
<path d="M78.9141 12.375C79.4297 12.375 79.8672 12.5625 80.2266 12.9375C80.6016 13.2969 80.7891 13.7344 80.7891 14.25C80.7891 14.7656 80.6016 15.2109 80.2266 15.5859C79.8672 15.9453 79.4297 16.125 78.9141 16.125C78.3984 16.125 77.9531 15.9453 77.5781 15.5859C77.2188 15.2109 77.0391 14.7656 77.0391 14.25C77.0391 13.7344 77.2188 13.2969 77.5781 12.9375C77.9531 12.5625 78.3984 12.375 78.9141 12.375Z" fill="#FFB900"/>
</svg>
